<?xml version="1.0" encoding="UTF-8"?>
<svg width="103px" height="93px" viewBox="0 0 103 93" version="1.1" xmlns="http://www.w3.org/2000/svg" xmlns:xlink="http://www.w3.org/1999/xlink">
    <!-- Generator: sketchtool 52.5 (67469) - http://www.bohemiancoding.com/sketch -->
    <title>AF5910EC-2397-46D5-97EB-CA8CC9A6C5EC</title>
    <desc>Created with sketchtool.</desc>
    <g id="Page-1" stroke="none" stroke-width="1" fill="none" fill-rule="evenodd">
        <g id="MBL-HOMEPAGE" transform="translate(-134.000000, -986.000000)">
            <g id="POURQUOI-NOUS-FAIRE-CONFIANCE" transform="translate(-2.000000, 831.000000)">
                <g id="Chantiers" transform="translate(100.000000, 156.000000)">
                    <g id="picto_renoComplete" transform="translate(37.000000, 0.000000)">
                        <path d="M15.8400006,38.471437 L15.8400006,84.9540251 C15.8400006,86.2053054 16.8486727,87.219411 18.0938567,87.219411 L35.9483854,87.219411 C37.1929615,87.219411 38.2016335,86.2053054 38.2016335,84.9540251 L38.2016335,75.9028734 C38.2016335,69.8274092 43.1008977,64.9017537 49.14381,64.9017537 C55.1873302,64.9017537 60.0853784,69.8274092 60.0853784,75.9028734 L60.0853784,84.9540251 C60.0853784,86.2053054 61.0952664,87.219411 62.3392345,87.219411 L80.1943712,87.219411 C81.4389472,87.219411 82.4476193,86.2053054 82.4476193,84.9540251 L82.4476193,38.471437 C82.4476193,37.7941441 82.1460513,37.1516938 81.6243872,36.7213561 L50.574434,11.0753054 C49.743298,10.3882321 48.5449299,10.3882321 47.7131859,11.0753054 L16.6632327,36.7213561 C16.1421766,37.1516938 15.8400006,37.7941441 15.8400006,38.471437" id="Fill-1" fill="#1E939D"></path>
                        <path d="M72.9465053,20.706397 C72.9082013,19.1855443 74.6306654,18.2900261 75.8418014,19.2008262 L87.1931619,27.7336166 L99.2200103,36.7743767 C100.291306,37.5794261 100.155114,39.2329255 98.9676903,39.8497022 L87.6540259,45.7320033 L76.3409694,51.6143045 C75.1541534,52.2316925 73.7332573,51.3875214 73.6986013,50.0439386 L73.3119133,34.9509428 L72.9465053,20.706397 Z" id="Fill-5" fill="#2D8B95"></path>
                        <path d="M72.9465053,20.706397 C72.9082013,19.1855443 74.6306654,18.2900261 75.8418014,19.2008262 L87.1931619,27.7336166 L99.2200103,36.7743767 C100.291306,37.5794261 100.155114,39.2329255 98.9676903,39.8497022 L87.6540259,45.7320033 L76.3409694,51.6143045 C75.1541534,52.2316925 73.7332573,51.3875214 73.6986013,50.0439386 L73.3119133,34.9509428 L72.9465053,20.706397 Z" id="Stroke-7" stroke="#1E939D" stroke-width="1.82952011" fill="#1E939D" stroke-linecap="round" stroke-linejoin="round"></path>
                        <path d="M93.2498149,64.7063521 L87.3175587,51.5724933 L92.5895269,48.8315353 L99.8216872,61.289935 C100.879607,63.1292621 100.194391,65.4845054 98.3168871,66.4607119 C96.439383,67.4369184 94.1314149,66.6379817 93.2498149,64.7063521 Z" id="Fill-9" fill="#2D8B95"></path>
                        <path d="M98.3168871,66.4607119 C96.439383,67.4369184 94.1314149,66.6379817 93.2498149,64.7063521 L87.3175587,51.5724933 L92.5895269,48.8315353 L99.8216872,61.289935 C100.879607,63.1292621 100.194391,65.4845054 98.3168871,66.4607119 Z" id="Stroke-11" stroke="#1E939D" stroke-width="1.82952011" fill="#1E939D" stroke-linecap="round" stroke-linejoin="round"></path>
                        <path d="M83.5491137,37.7510722 C82.6152257,38.2364247 82.2492097,39.3917348 82.7319617,40.3312648 L88.2623299,51.0817616 L91.644634,49.3225116 L86.1154818,38.5720148 C85.6321218,37.6330961 84.4830018,37.2651084 83.5491137,37.7510722" id="Fill-13" fill="#1E939D"></path>
                        <path d="M83.5491137,37.7510722 C82.6152257,38.2364247 82.2492097,39.3917348 82.7319617,40.3312648 L88.2623299,51.0817616 L91.644634,49.3225116 L86.1154818,38.5720148 C85.6321218,37.6330961 84.4830018,37.2651084 83.5491137,37.7510722 Z" id="Stroke-15" stroke="#1E939D" stroke-width="1.82952011" stroke-linecap="round" stroke-linejoin="round"></path>
                        <g id="Group-20" transform="translate(3.648000, 57.281376)">
                            <path d="M15.2221318,28.8869706 C15.2269958,30.9952588 16.9281799,32.7031616 19.02578,32.7031616 C21.127028,32.7031616 22.8306441,30.9903686 22.8306441,28.8778015 C22.8306441,28.8625196 22.8282121,28.8472377 22.8282121,28.8307333 L22.8282121,0.169873376 L0.469011219,0.169873376 L0.469011219,25.0536639" id="Fill-17" fill="#FFFFFF"></path>
                            <path d="M15.2221318,28.8869706 C15.2269958,30.9952588 16.9281799,32.7031616 19.02578,32.7031616 C21.127028,32.7031616 22.8306441,30.9903686 22.8306441,28.8778015 C22.8306441,28.8625196 22.8282121,28.8472377 22.8282121,28.8307333 L22.8282121,0.169873376 L0.469011219,0.169873376 L0.469011219,25.0536639" id="Stroke-19" stroke="#211A0D" stroke-width="2.6400001" stroke-linecap="round" stroke-linejoin="round"></path>
                        </g>
                        <path d="M22.6797625,82.3347951 L22.6736585,82.3347951 L22.6797625,82.3347951 Z" id="Fill-21" fill="#FFFFFF"></path>
                        <path d="M22.6797625,82.3347951 L22.6736585,82.3347951 L22.6797625,82.3347951 Z" id="Stroke-23" stroke="#211A0D" stroke-width="1.82952011" stroke-linecap="round" stroke-linejoin="round"></path>
                        <path d="M22.6797625,89.9846596 L22.6736585,89.9846596 L22.6797625,89.9846596 Z" id="Fill-25" fill="#FFFFFF"></path>
                        <path d="M22.6797625,89.9846596 L22.6736585,89.9846596 L22.6797625,89.9846596 Z" id="Stroke-27" stroke="#211A0D" stroke-width="1.82952011" stroke-linecap="round" stroke-linejoin="round"></path>
                        <path d="M0.304182412,86.1594217 C0.304182412,88.2719888 2.00719048,89.9847819 4.10843856,89.9847819 L22.6737193,89.9847819 C20.5730792,89.9847819 18.8694631,88.2719888 18.8694631,86.1594217 C18.8694631,84.0474659 20.5730792,82.3346728 22.6737193,82.3346728 L4.10843856,82.3346728 C2.00719048,82.3346728 0.304182412,84.0474659 0.304182412,86.1594217" id="Fill-29" fill="#FFFFFF"></path>
                        <path d="M0.304182412,86.1594217 C0.304182412,88.2719888 2.00719048,89.9847819 4.10843856,89.9847819 L22.6737193,89.9847819 C20.5730792,89.9847819 18.8694631,88.2719888 18.8694631,86.1594217 C18.8694631,84.0474659 20.5730792,82.3346728 22.6737193,82.3346728 L4.10843856,82.3346728 C2.00719048,82.3346728 0.304182412,84.0474659 0.304182412,86.1594217 Z" id="Stroke-31" stroke="#211A0D" stroke-width="2.6400001" stroke-linecap="round" stroke-linejoin="round"></path>
                        <path d="M83.1744641,41.7888505 L73.5528637,46.7921379 C72.3654397,47.4089146 70.9451516,46.5647435 70.9104956,45.2211607 L70.5231996,30.1287762 L70.1583996,15.8836191 C70.1194876,14.3633777 71.8419517,13.4672483 73.0536957,14.3780483 L84.4044482,22.9108387 L96.4319046,31.9515988 C97.5019847,32.7566482 97.3670087,34.4101476 96.1795846,35.0275356 L86.5573762,40.0302117" id="Stroke-33" stroke="#000000" stroke-width="2.6400001" stroke-linecap="round" stroke-linejoin="round"></path>
                        <path d="M95.528599,61.637934 C93.6510949,62.6141405 91.3431268,61.8152038 90.4615268,59.8841855 L84.5292706,46.7503267 L89.8012388,44.0087575 L97.0333991,56.4671571 C98.0913191,58.3064842 97.4054951,60.6617275 95.528599,61.637934 Z" id="Stroke-35" stroke="#000000" stroke-width="2.6400001" stroke-linecap="round" stroke-linejoin="round"></path>
                        <path d="M80.7608864,32.9282943 C79.8263904,33.4142581 79.4609824,34.5695682 79.9437344,35.5084869 L85.4741026,46.2589837 L88.8564067,44.500345 L83.3266465,33.7492369 C82.8438945,32.8103182 81.6947744,32.4423305 80.7608864,32.9282943 Z" id="Stroke-37" stroke="#000000" stroke-width="2.6400001" stroke-linecap="round" stroke-linejoin="round"></path>
                        <path d="M26.4784619,77.6320105 L36.6211183,77.6320105 L36.6211183,66.3154729 C36.6211183,60.2400088 41.5197744,55.3143533 47.5632947,55.3143533 C53.6055989,55.3143533 58.5048631,60.2400088 58.5048631,66.3154729 L58.5048631,77.6320105 L80.866496,77.6320105 L80.866496,42.9892116" id="Stroke-39" stroke="#000000" stroke-width="2.6400001" stroke-linecap="round" stroke-linejoin="round"></path>
                        <polyline id="Stroke-41" stroke="#000000" stroke-width="2.6400001" stroke-linecap="round" stroke-linejoin="round" points="70.2390204 19.0355374 47.5630515 0.305454213 14.2592422 27.8128379 14.2592422 57.4517381"></polyline>
                        <path d="M41.8173905,5.08128616 L8.51418914,32.5886698" id="Stroke-43" stroke="#000000" stroke-width="2.6400001" stroke-linecap="round" stroke-linejoin="round"></path>
                        <path d="M53.5059477,5.08128616 L70.2983004,18.9511203" id="Stroke-45" stroke="#000000" stroke-width="2.6400001" stroke-linecap="round" stroke-linejoin="round"></path>
                        <path d="M47.5631123,40.478521 C43.6761681,40.478521 40.526728,37.3108929 40.526728,33.4042332 C40.526728,29.4969621 43.6761681,26.3299454 47.5631123,26.3299454 C51.4494484,26.3299454 54.5988886,29.4969621 54.5988886,33.4042332 C54.5988886,37.3108929 51.4494484,40.478521 47.5631123,40.478521 Z" id="Stroke-47" stroke="#000000" stroke-width="2.6400001" stroke-linecap="round" stroke-linejoin="round"></path>
                    </g>
                </g>
            </g>
        </g>
    </g>
</svg>